ooooo ooo ooooo ooo o8o .oooooo. ooooo ooo oooooooooooo
`888' `8' `888b. `8' `"' d8P' `Y8b `888' `8' `888' `8
888 8 8 `88b. 8 oooo 888 888 888 8 888
888 8 8 `88b. 8 `888 888 888 888 8 888oooo8
888 8 8 `88b.8 888 888 888 888 8 888 "
`88. .8' 8 `888 888 `88b d88b `88. .8' 888 o
`YbodP' o8o `8 o888o `Y8bood8P'Ybd' `YbodP' o888ooooood8


.........why be the same as everyone else when YOU can be UNiQUEΓäó.........


General
Complete name : Playing for Keeps 2012 CAM x264 AAC-UNiQUE.mp4
Format : MPEG-4
Format profile : Base Media
Codec ID : isom
File size : 1.42 GiB
Duration : 1h 36mn
Overall bit rate mode : Variable
Overall bit rate : 2 112 Kbps

Video
ID : 1
Format : AVC
Format/Info : Advanced Video Codec
Format profile : High@L4.1
Format settings, CABAC : Yes
Format settings, ReFrames : 3 frames
Codec ID : avc1
Codec ID/Info : Advanced Video Coding
Duration : 1h 36mn
Bit rate mode : Variable
Bit rate : 2 028 Kbps
Maximum bit rate : 40.0 Mbps
Width : 720 pixels
Height : 282 pixels
Display aspect ratio : 2.553
Frame rate mode : Constant
Frame rate : 25.000 fps
Color space : YUV
Chroma subsampling : 4:2:0
Bit depth : 8 bits
Scan type : Progressive
Bits/(Pixel*Frame) : 0.400
Stream size : 1.37 GiB (96%)

Audio
ID : 2
Format : AAC
Format/Info : Advanced Audio Codec
Format profile : LC
Codec ID : 40
Duration : 1h 36mn
Bit rate mode : Variable
Bit rate : 80.7 Kbps
Maximum bit rate : 116 Kbps
Channel(s) : 2 channels
Channel positions : Front: L R
Sampling rate : 44.1 KHz
Compression mode : Lossy
Stream size : 55.7 MiB (4%)
Language : English
Encoded date : UTC 2012-12-16 13:22:13

Sources : Video - Muz4ina.na.ra77hvat.2012.EVG.D.TS.1400mb - Thanks!
: Audio - LIGHT - Thanks!

Sample Included : Yes.

Storyline
A former sports star who's fallen on hard times starts coaching his son's soccer team as a way to get his life together. His attempts to become an adult are met with challenges from the attractive soccer moms who pursue him at every turn.

iMDB: http://uk.imdb.com/title/tt1540128/

Screens:
 
http://www.shotpix.com/images/59346190191107535945.png
 
http://www.shotpix.com/images/85563020047951741142.png
 
http://www.shotpix.com/images/04866749700692202270.png
 
http://www.shotpix.com/images/27476233518994530341.png
 
http://www.shotpix.com/images/53406540570114024011.png
 
http://www.shotpix.com/images/98415201929994718266.png